<svg width="16" height="21" viewBox="0 0 16 21" fill="none" xmlns="http://www.w3.org/2000/svg">
<g clip-path="url(#clip0_1723_13627)">
<path d="M15.5556 13.3276C15.5556 17.5641 12.0724 21.0002 7.77778 21.0002C3.48318 21.0002 0 17.5641 0 13.3276C0 9.09115 4.45856 3.13559 6.62372 0.535211C7.21862 -0.180203 8.32853 -0.176056 8.91922 0.541432C11.0802 3.17084 15.5535 9.11811 15.5535 13.3256L15.5556 13.3276Z" fill="#60C1FF"/>
<path d="M4.1895 10.8369C4.04026 10.8369 3.8868 10.8058 3.74176 10.7374C3.21623 10.4927 2.99131 9.87681 3.23725 9.3584C3.94356 7.8778 4.982 6.17117 6.24326 4.421C6.57959 3.95443 7.23545 3.84452 7.70842 4.17631C8.1814 4.5081 8.29281 5.15508 7.95647 5.62165C6.76668 7.27229 5.79341 8.86901 5.13965 10.2397C4.96098 10.615 4.5826 10.8348 4.1874 10.8348L4.1895 10.8369Z" fill="#A6DBFF"/>
<path d="M3.15734 14.3643C2.57716 14.3643 2.10629 13.8998 2.10629 13.3274C2.10629 13.1823 2.1126 13.0309 2.12731 12.8774C2.17987 12.3072 2.69068 11.8862 3.26876 11.936C3.84683 11.9878 4.27356 12.4917 4.22101 13.062C4.2126 13.1553 4.2084 13.2445 4.2084 13.3274C4.2084 13.8998 3.73752 14.3643 3.15734 14.3643Z" fill="#A6DBFF"/>
</g>
<defs>
<clipPath id="clip0_1723_13627">
<rect width="15.5556" height="21" fill="white"/>
</clipPath>
</defs>
</svg>
