<svg width="180" height="40" viewBox="0 0 180 40" fill="none" xmlns="http://www.w3.org/2000/svg">
<path d="M104.596 19.5149H103.209V14.0085H100.715V31.0042H103.209V21.3447H104.596V31.0042H107.089V14.0085H104.596V19.5149Z" fill="#0B386A"/>
<path d="M96.6213 19.0298V14.5872H93.9915V19.0298C93.9915 22.1787 92.8681 23.8979 90.5703 24.7234V26.5617C92.7149 26.0766 94.4681 25.0383 95.3022 23.3787C96.1362 25.0383 97.8894 26.0851 100.034 26.5617V24.7234C97.7362 23.8894 96.6128 22.1787 96.6128 19.0298H96.6213Z" fill="#0B386A"/>
<path d="M124.034 14.0085H121.43V31.0042H124.034V21.3447H126.74V19.5149H124.034V14.0085Z" fill="#0B386A"/>
<path d="M117.753 14.783H109.549V24.8255C109.549 25.6766 110.247 26.3745 111.089 26.3745H118.621V15.6511C118.621 15.166 118.238 14.783 117.753 14.783ZM116.017 24.6298H112.153V16.5191H116.017V24.6298Z" fill="#0B386A"/>
<path d="M129.396 17.1915C129.396 19.2425 131.847 20.6723 135.575 20.6723C139.302 20.6723 141.753 19.2425 141.753 17.1915C141.753 15.1404 139.302 13.7106 135.575 13.7106C131.847 13.7106 129.396 15.1404 129.396 17.1915ZM139.047 17.1915C139.047 18.1362 137.66 18.9277 135.566 18.9277C133.472 18.9277 132.094 18.1362 132.094 17.1915C132.094 16.2468 133.481 15.4553 135.566 15.4553C137.651 15.4553 139.047 16.2468 139.047 17.1915Z" fill="#0B386A"/>
<path d="M144.068 21.4468H127.073V23.183H144.068V21.4468Z" fill="#0B386A"/>
<path d="M129.004 26.6979V29.4638C129.004 30.3149 129.702 31.0128 130.545 31.0128H142.323V29.3872H131.702V28.2638H142.128V24.9191C142.128 24.434 141.745 24.0511 141.26 24.0511H128.996V25.6766H139.421V26.6979H128.996H129.004Z" fill="#0B386A"/>
<path d="M160.247 18.2553V15.4553C160.247 14.9702 159.864 14.5872 159.379 14.5872H147.115V16.3234H157.643V18.2553C157.643 19.4128 157.447 20.2043 157.064 20.766H145.183V22.5021H162.179V20.766H159.575C159.958 20.2043 160.247 19.4128 160.247 18.2553Z" fill="#0B386A"/>
<path d="M160.247 31.0042V24.9191C160.247 24.434 159.864 24.0511 159.379 24.0511H147.115V29.4638C147.115 30.3149 147.813 31.0128 148.664 31.0128H160.255L160.247 31.0042ZM149.719 25.7872H157.634V29.2681H149.719V25.7872Z" fill="#0B386A"/>
<path d="M174.664 25.4042H177.175C177.634 24.4 177.949 23.0893 177.949 21.3447V15.8383C177.949 15.3532 177.566 14.9702 177.081 14.9702H164.817V16.7064H175.345V21.3447C175.345 23.0808 175.098 24.4 174.672 25.4042H174.664Z" fill="#0B386A"/>
<path d="M171.634 21.3447H169.004V27.3362H162.885V29.0723H179.881V27.3362H171.634V21.3447Z" fill="#0B386A"/>
<path d="M80.4682 24.4851H84.2724V26.6213C83.1235 27.6851 81.6086 28.1872 80.1022 28.1872C77.1745 28.1872 74.8937 26.3234 74.8937 22.4596C74.8937 19.4638 76.332 16.7404 80.1107 16.7404C82.0171 16.7404 83.6171 17.5064 84.1703 19.617H86.9533C86.6554 16.5191 84.1873 14.1277 80.2809 14.1277C75.2256 14.1277 71.8979 17.2596 71.8979 22.5872C71.8979 27.9149 75.6001 30.9021 80.2809 30.9021C82.4682 30.9021 85.1831 29.9489 87.1065 27.7532V21.8808H80.4767V24.4851H80.4682Z" fill="#0B386A"/>
<path d="M62.0682 26.4681L57.6342 14.3915H53.9576V30.6213H56.7576V19.6085L60.7576 30.4255H63.3874L67.3874 19.6085V30.6213H70.1874V14.3915H66.5108L62.0682 26.4681Z" fill="#0B386A"/>
<path d="M15.498 31.8298C11.9661 31.8298 9.09799 28.9617 9.09799 25.4298C9.09799 23.7532 9.7448 22.2213 10.8001 21.0808C9.69374 19.0553 9.07246 16.7319 9.07246 14.2638C9.07246 13.8894 9.08948 13.5064 9.11502 13.1319C3.80438 15.0638 0.00012207 20.1617 0.00012207 26.1532C0.00012207 33.7957 6.19587 40 13.8469 40C16.298 40 18.5959 39.3617 20.5959 38.2468V29.3021C19.4214 30.834 17.5831 31.8298 15.498 31.8298Z" fill="url(#paint0_linear_33_4302)"/>
<path d="M15.4979 19.0213C16.2214 19.0213 16.9192 19.1404 17.566 19.3617C16.8511 18.2723 16.4256 16.9617 16.4256 15.5574C16.4256 11.7447 19.515 8.65532 23.3277 8.65532C26.1107 8.65532 28.5022 10.2979 29.6001 12.6723C30.6299 12.4255 31.7022 12.2979 32.8086 12.2979C34.4767 12.2979 36.0682 12.5872 37.5405 13.1319C36.9618 5.78723 30.8171 0 23.3277 0C15.4469 0 9.0639 6.38298 9.0639 14.2553C9.0639 16.7234 9.68518 19.0468 10.7916 21.0723C11.966 19.8043 13.6341 19.0128 15.4894 19.0128L15.4979 19.0213Z" fill="url(#paint1_linear_33_4302)"/>
<path d="M32.8087 12.2979C31.7023 12.2979 30.6299 12.4255 29.6002 12.6723C30.0087 13.5489 30.2299 14.5277 30.2299 15.5574C30.2299 16.9617 29.8129 18.2638 29.0895 19.3532C29.7363 19.1319 30.4342 19.0128 31.1576 19.0128C34.698 19.0128 37.5576 21.8808 37.5576 25.4213C37.5576 28.9617 34.6895 31.8213 31.1576 31.8213C29.081 31.8213 27.2342 30.834 26.0682 29.3021V38.2383C28.0682 39.3532 30.3661 39.9915 32.8172 39.9915C40.4682 39.9915 46.664 33.7957 46.664 26.1447C46.664 18.4936 40.4597 12.2979 32.8172 12.2979H32.8087Z" fill="url(#paint2_linear_33_4302)"/>
<defs>
<linearGradient id="paint0_linear_33_4302" x1="12.3746" y1="40.1362" x2="7.60863" y2="13.1064" gradientUnits="userSpaceOnUse">
<stop offset="0.15" stop-color="#44C8F5"/>
<stop offset="0.31" stop-color="#3FC2F1"/>
<stop offset="0.52" stop-color="#32B1E6"/>
<stop offset="0.75" stop-color="#1D96D4"/>
<stop offset="1" stop-color="#0072BC"/>
</linearGradient>
<linearGradient id="paint1_linear_33_4302" x1="8.12773" y1="14.2213" x2="34.9448" y2="4.46809" gradientUnits="userSpaceOnUse">
<stop offset="0.15" stop-color="#44C8F5"/>
<stop offset="0.31" stop-color="#3FC2F1"/>
<stop offset="0.52" stop-color="#32B1E6"/>
<stop offset="0.75" stop-color="#1D96D4"/>
<stop offset="1" stop-color="#0072BC"/>
</linearGradient>
<linearGradient id="paint2_linear_33_4302" x1="38.9704" y1="13.5404" x2="34.2214" y2="40.4851" gradientUnits="userSpaceOnUse">
<stop offset="0.15" stop-color="#44C8F5"/>
<stop offset="0.31" stop-color="#3FC2F1"/>
<stop offset="0.52" stop-color="#32B1E6"/>
<stop offset="0.75" stop-color="#1D96D4"/>
<stop offset="1" stop-color="#0072BC"/>
</linearGradient>
</defs>
</svg>
