<svg width="187" height="27" viewBox="0 0 187 27" fill="none" xmlns="http://www.w3.org/2000/svg">
<g clip-path="url(#clip0_33_3430)">
<path d="M16.9469 0L11.6205 2.67234L6.30286 0L11.6205 10.1184L16.9469 0Z" fill="#FABE00"/>
<path d="M18.8059 7.82683L18.728 7.78342L22.524 6.19219V0.813008L15.9266 3.62358L12.2692 10.5423C15.1887 10.8857 17.3342 13.4463 17.1621 16.3813C16.9902 19.3166 14.5602 21.6087 11.6205 21.6087C8.68092 21.6087 6.25085 19.3166 6.07899 16.3813C5.90684 13.4463 8.05242 10.8856 10.9719 10.5423L7.32305 3.62358L0.69981 0.812935V6.15761L4.53028 7.78335L4.44376 7.86119C1.00843 10.8561 -0.208626 15.6686 1.39011 19.937C2.98878 24.2052 7.06784 27.0336 11.6249 27.0336C16.1821 27.0336 20.2609 24.2052 21.8596 19.9371C23.4583 15.6686 22.2412 10.8561 18.8059 7.86126V7.82683Z" fill="#FABE00"/>
<path d="M159.539 16.2503H136.452L135.475 14.7021H159.539C159.789 14.7021 159.841 15.0133 159.841 15.4804C159.841 15.9474 159.798 16.2503 159.539 16.2503ZM147.935 12.6439C141.951 12.6439 137.412 11.1217 137.412 7.93919C137.412 4.75643 141.951 3.23442 147.935 3.23442C153.919 3.23442 158.458 4.75643 158.458 7.93919C158.458 11.1217 153.919 12.6439 147.935 12.6439ZM158.709 24.276H139.046C138.129 24.276 137.386 23.5325 137.386 22.6155V17.6339H140.153C140.631 17.6339 141.018 18.021 141.018 18.4986V21.9579C141.017 22.4191 141.378 22.7999 141.839 22.8229H158.709C158.951 22.8229 159.011 23.1255 159.011 23.6011C159.011 24.0767 158.934 24.2759 158.709 24.2759V24.276ZM147.935 4.78262C144.001 4.78262 141.122 5.75108 141.122 7.93919C141.122 10.1273 144.001 11.0958 147.935 11.0958C151.869 11.0958 154.749 10.1273 154.749 7.93919C154.749 5.75108 151.869 4.78262 147.935 4.78262ZM184.484 18.0317H180.248C180.703 18.245 181.089 18.5834 181.36 19.0075C181.631 19.4316 181.776 19.924 181.778 20.4273C181.778 22.7709 178.994 23.7828 175.207 23.7828C171.419 23.7828 168.635 22.7709 168.635 20.4273C168.635 18.0838 171.419 17.0371 175.207 17.0371H185.444V4.06473C185.444 3.58711 185.057 3.19999 184.58 3.19999H181.986V7.66242H180.049V4.06473C180.049 3.58711 179.662 3.19999 179.184 3.19999H176.59V14.5897H180.049V9.32288H181.986V15.6447H175.207C169.24 15.6447 164.761 17.2794 164.761 20.4704C164.761 23.6618 169.24 25.2964 175.207 25.2964C181.173 25.2964 185.652 23.6618 185.652 20.4704C185.649 20.0031 185.543 19.5421 185.341 19.1206C185.139 18.699 184.847 18.3272 184.484 18.0317Z" fill="#005BAC"/>
<path d="M175.224 9.69479C175.215 8.77924 174.911 7.89089 174.359 7.16069H170.9C171.5 7.85482 171.81 8.75288 171.765 9.66896C171.765 11.3205 171.039 13.0761 168.998 13.0761C167.269 13.0761 166.188 11.4332 166.188 9.66896C166.188 7.9044 167.209 6.15771 168.972 6.15771H175.674C175.881 6.15771 175.924 5.7597 175.924 5.34477C175.924 4.92947 175.924 4.6182 175.674 4.6182H170.745V3.30373C170.75 3.11628 170.681 2.93439 170.553 2.797C170.426 2.65961 170.249 2.57764 170.062 2.56863H167.053V4.61827H161.666L162.479 6.15771H164.519C163.972 6.56834 163.529 7.10311 163.229 7.71802C162.928 8.33294 162.778 9.01043 162.79 9.69479C162.79 12.4275 165.237 14.6156 168.972 14.6156C172.708 14.6156 175.224 12.4275 175.224 9.69479ZM100.681 16.527C101.193 16.8207 101.618 17.2455 101.911 17.7577C102.204 18.2699 102.356 18.8511 102.35 19.4413C102.35 22.2522 99.3234 23.5408 95.5795 23.5408C91.8355 23.5408 88.8093 22.2522 88.8093 19.4413C88.8093 16.6308 91.7923 15.3507 95.5795 15.3507H106.82C106.9 15.3462 106.975 15.3115 107.029 15.2536C107.084 15.1957 107.114 15.1191 107.114 15.0395C107.16 14.724 107.16 14.4035 107.114 14.088C107.106 14.0154 107.072 13.9482 107.018 13.8989C106.963 13.8497 106.893 13.8216 106.82 13.8199H97.3347V10.8883H106.327C106.406 10.886 106.481 10.853 106.536 10.7965C106.591 10.7399 106.621 10.6642 106.621 10.5854C106.667 10.2671 106.667 9.94388 106.621 9.62556C106.611 9.55299 106.574 9.48671 106.519 9.439C106.463 9.39129 106.392 9.36538 106.319 9.36608H89.2673C88.79 9.36608 88.4029 8.97896 88.4029 8.50134V4.36733C88.4029 3.88971 88.0155 3.50259 87.5382 3.50259H84.8577V9.28817C84.8813 10.1782 85.6193 10.8817 86.5091 10.8622H93.7895V13.8373H83.3444L84.356 15.368H87.4603C86.7932 15.7811 86.2427 16.3579 85.8614 17.0436C85.48 17.7293 85.2803 18.5012 85.2813 19.2859C85.2813 23.2899 89.8901 25.1148 95.5794 25.1148C101.269 25.1148 105.878 23.2899 105.878 19.2859C105.908 18.3031 105.603 17.3391 105.013 16.5529L100.681 16.527ZM120.223 7.16959C120.408 7.38229 120.57 7.61417 120.707 7.86129C121.03 8.42143 121.2 9.05677 121.2 9.70347C121.2 11.743 119.546 13.3963 117.507 13.3963C115.469 13.3963 113.815 11.743 113.815 9.70347C113.786 7.67369 115.401 6.00145 117.43 5.95856H125.376C125.455 5.95632 125.53 5.92345 125.584 5.86695C125.639 5.81044 125.67 5.73475 125.67 5.65597C125.72 5.32917 125.72 4.99671 125.67 4.67021C125.661 4.59607 125.626 4.52768 125.57 4.4782C125.514 4.42871 125.442 4.40162 125.367 4.40212H119.315V3.53709C119.315 3.05948 118.927 2.67236 118.45 2.67236H115.7V4.40212H108.783C108.921 4.60959 109.769 5.90684 109.812 5.95856H112.406C111.772 6.36398 111.245 6.91577 110.868 7.56748C110.492 8.21919 110.278 8.95174 110.244 9.70347C110.244 12.6092 113.176 14.9616 117.507 14.9616C120.422 14.9616 122.557 13.8978 123.802 12.3065H128.835V18.0145H115.484V16.4319C115.484 15.9542 115.097 15.5669 114.62 15.5669H111.879V22.6671C111.885 22.8867 111.935 23.1028 112.026 23.3029C112.117 23.5029 112.246 23.683 112.407 23.8326C112.568 23.9823 112.757 24.0985 112.963 24.1746C113.169 24.2507 113.388 24.2852 113.608 24.276H132.561V3.99551C132.561 3.51782 132.174 3.13077 131.697 3.13077H128.938V7.16959H120.223ZM128.869 22.7365H115.977C115.913 22.7387 115.849 22.7281 115.79 22.7052C115.73 22.6824 115.675 22.6477 115.629 22.6034C115.583 22.5589 115.547 22.5057 115.522 22.4469C115.497 22.388 115.484 22.3247 115.484 22.2608V19.5712H128.835L128.869 22.7365ZM128.869 10.7671H124.606C124.703 10.4267 124.753 10.0746 124.754 9.72068C124.752 9.39417 124.711 9.06901 124.632 8.75221H128.835L128.869 10.7671ZM78.3556 3.66702H75.1648V11.9002H62.091V3.66702H58.9349C58.1122 3.74456 57.5038 4.46848 57.569 5.29268V22.7019C57.5087 23.5245 58.1145 24.2454 58.9349 24.3277H62.091V15.4804H75.1648V24.3277H78.3555C79.1795 24.2498 79.7905 23.5276 79.7301 22.7019V5.29268C79.7467 5.09566 79.7244 4.89729 79.6643 4.70892C79.6042 4.52055 79.5075 4.34587 79.3799 4.19488C79.2522 4.04389 79.096 3.91955 78.9203 3.82898C78.7445 3.7384 78.5526 3.68337 78.3556 3.66702ZM52.2513 3.66702H49.0606V19.4933L39.4715 6.84956C37.8806 5.00738 36.7822 3.66709 34.2317 3.66709H30.963V22.6931C30.903 23.5191 31.5139 24.2412 32.3379 24.3191H35.5459V8.43204L45.1955 20.9895C46.821 22.8747 48.2737 24.3277 50.6342 24.3277H53.6173V5.30136C53.6874 4.474 53.0778 3.74463 52.2513 3.66702Z" fill="#005BAC"/>
</g>
<defs>
<clipPath id="clip0_33_3430">
<rect width="186.352" height="27" fill="white"/>
</clipPath>
</defs>
</svg>
