<svg width="80" height="80" viewBox="0 0 80 80" fill="none" xmlns="http://www.w3.org/2000/svg">
<rect width="80" height="80" rx="20" fill="#0A1B98"/>
<g clip-path="url(#clip0_33_2070)">
<path d="M54.0356 47.8079C53.9414 46.2114 53.4366 44.6628 52.5667 43.3025L38.5163 22H48.1482C49.7078 22 51.1544 22.9026 51.7234 23.7546L59.6888 35.8417C60.2941 36.7618 60.2941 38.3254 59.6888 39.2572L54.0356 47.8079Z" fill="white"/>
<path d="M38.6979 52.941L47.4804 39.536C47.7052 39.1721 47.8623 38.7729 47.9445 38.3565L51.6023 43.9049C52.6495 45.484 53.3375 48.5389 52.6636 49.8861L51.8041 51.1883C51.0778 52.3035 49.7502 52.9429 48.1583 52.9429L38.6979 52.941Z" fill="white"/>
<path d="M32.25 58.0019C30.6904 58.0019 29.2458 57.0993 28.6768 56.2474L20.7094 44.1603C20.1041 43.2421 20.1041 41.6785 20.7094 40.7467L26.3586 32.196C26.4558 33.7898 26.9612 35.3353 27.8294 36.6936L41.8819 58.0019H32.25Z" fill="white"/>
<path d="M28.7959 36.0892C27.7508 34.5101 27.0607 31.4533 27.7346 30.1081L28.5961 28.8058C29.3204 27.6907 30.65 27.0512 32.2399 27.0512H41.7003L32.9198 40.4562C32.6962 40.8174 32.5385 41.2131 32.4537 41.6259L28.7959 36.0892Z" fill="white"/>
</g>
<defs>
<clipPath id="clip0_33_2070">
<rect width="42" height="36" fill="white" transform="translate(19 22)"/>
</clipPath>
</defs>
</svg>
