<svg width="182" height="28" viewBox="0 0 182 28" fill="none" xmlns="http://www.w3.org/2000/svg">
<path d="M178.926 3.26773V7.34259H177.044V3.26773H174.935V14.4924H177.044V9.18577H178.926V14.908H181.034V3.26773H178.926ZM173.583 15.67C169.52 15.67 166.217 17.6487 166.217 20.0792C166.217 22.5096 169.529 24.4883 173.583 24.4883C177.637 24.4883 180.953 22.5096 180.953 20.0792C180.953 17.6487 177.646 15.673 173.583 15.673V15.67ZM173.583 22.6663C170.746 22.6663 168.442 21.5037 168.442 20.0792C168.442 18.6546 170.746 17.4861 173.583 17.4861C176.42 17.4861 178.733 18.6486 178.733 20.0792C178.733 21.5097 176.42 22.6693 173.58 22.6693L173.583 22.6663ZM134.431 17.9529H124.721V15.6158H122.462V22.8921C122.48 23.1869 122.612 23.4631 122.83 23.6622C123.048 23.8612 123.336 23.9674 123.631 23.9583H136.675V15.6158H134.428L134.431 17.9529ZM134.407 22.1181H124.721V19.772H134.392L134.407 22.1181ZM134.431 7.36066H130.133C129.642 4.95128 127.383 3.22256 124.736 3.22256C121.7 3.22256 119.234 5.50544 119.234 8.30936C119.234 11.1133 121.7 13.3871 124.736 13.3871C127.413 13.3871 129.672 11.6313 130.139 9.20384H134.416V14.2063H136.662V3.26773H134.416L134.431 7.36066ZM124.751 11.5921C124.097 11.6107 123.453 11.4338 122.901 11.0841C122.348 10.7344 121.912 10.2278 121.649 9.62912C121.386 9.03041 121.308 8.36686 121.424 7.72336C121.541 7.07987 121.846 6.48571 122.302 6.01691C122.758 5.54812 123.343 5.22601 123.983 5.09182C124.623 4.95762 125.289 5.01744 125.895 5.26362C126.501 5.50979 127.019 5.93114 127.384 6.47372C127.749 7.0163 127.944 7.65544 127.944 8.30936C127.95 8.73658 127.873 9.16093 127.715 9.55803C127.557 9.95514 127.323 10.3172 127.025 10.6233C126.726 10.9295 126.371 11.1738 125.978 11.3421C125.585 11.5104 125.163 11.5995 124.736 11.6042L124.751 11.5921ZM146.104 17.3656H143.845V22.8831C143.863 23.1789 143.996 23.4562 144.214 23.6563C144.433 23.8564 144.721 23.9636 145.017 23.9553H158.693V22.1121H146.089L146.104 17.3656ZM141.517 15.7634H160.353V13.9292H141.502L141.517 15.7634ZM150.935 12.1132C155.073 12.1132 158.44 10.005 158.44 7.41487C158.44 4.82479 155.073 2.72261 150.935 2.72261C146.797 2.72261 143.43 4.83081 143.43 7.41487C143.43 9.99893 146.782 12.1252 150.92 12.1252L150.935 12.1132ZM150.935 4.54169C153.847 4.54169 156.215 5.83071 156.215 7.41487C156.215 8.99904 153.847 10.2971 150.935 10.2971C148.023 10.2971 145.652 9.01711 145.652 7.42692C145.652 5.83673 148.008 4.55373 150.92 4.55373L150.935 4.54169Z" fill="#00367F"/>
<path d="M96.8956 14.4111C99.0833 13.3702 100.878 11.6533 102.016 9.51403C103.151 11.6549 104.946 13.3723 107.135 14.4111L108.19 12.9685C106.575 12.0597 105.226 10.7455 104.274 9.15564C103.247 7.24319 103.187 4.9844 103.187 4.40314V3.65924H100.889V4.40917C100.889 5.01151 100.817 7.25223 99.7718 9.15564C98.8209 10.7442 97.4712 12.0565 95.8566 12.9625L96.8956 14.4111Z" fill="#00367F"/>
<path d="M101.862 16.7994H99.6152V22.9072C99.6331 23.2038 99.7657 23.4819 99.9849 23.6826C100.204 23.8832 100.493 23.9907 100.79 23.9824H113.671V22.1362H101.862V16.7994Z" fill="#00367F"/>
<path d="M113.457 3.28881H111.207V18.3264H113.457V10.3603H116.544V8.51716H113.457V3.28881Z" fill="#00367F"/>
<path d="M53.1172 4.04775H49.6387L49.6176 4.06883L39.6638 13.2666V4.05076H37.3207L37.3237 23.9673H39.6638V14.5888L50.6717 23.9673H54.3912L42.2539 13.8871L53.1172 4.04775Z" fill="#00367F"/>
<path d="M88.3273 13.6552C89.8331 12.9444 91.3179 11.5951 91.3149 9.09842V9.0412C91.3244 8.44535 91.2148 7.85359 90.9924 7.3007C90.77 6.74782 90.4393 6.24497 90.0199 5.82167C88.8724 4.6983 87.0714 4.04475 84.8006 4.04475H76.3075V23.9643H85.168C89.5049 23.9643 92.4112 21.9344 92.4172 18.489V18.4348C92.4202 15.7664 90.5921 14.378 88.3273 13.6552ZM78.75 14.9894H84.8156C88.246 14.9894 89.9867 16.2121 89.9867 18.3023V18.3595C89.9867 20.5068 88.1797 21.8019 85.2071 21.8109H78.6717V6.21319H84.6018C87.4057 6.21319 88.8905 7.45703 88.8935 9.35442V9.40562C88.8935 11.6704 87.0865 12.848 84.4331 12.8571H80.024L78.75 14.9894Z" fill="#00367F"/>
<path d="M62.83 4.04775H55.903V23.9673H62.83C65.9532 23.9673 68.5975 22.8801 70.4617 21.0881C71.4089 20.1719 72.1588 19.0717 72.6653 17.8551C73.1719 16.6385 73.4243 15.3312 73.4072 14.0135V13.9563C73.4256 12.6411 73.1736 11.3362 72.667 10.1223C72.1603 8.9085 71.4097 7.81167 70.4617 6.89986C68.6035 5.11993 65.9592 4.04775 62.83 4.04775ZM70.9376 14.0617C70.9376 18.3956 67.7903 21.7416 62.83 21.7446H58.2883V6.27944H62.83C67.7873 6.27944 70.9316 9.67968 70.9376 14.0135V14.0557V14.0617Z" fill="#00367F"/>
<path d="M5.51087 6.33367C4.90852 7.53836 5.51087 10.0682 6.29693 11.2789L16.9524 28H9.1671C8.5912 27.9951 8.0243 27.8565 7.51108 27.5952C6.99785 27.3339 6.55232 26.957 6.20959 26.4942L0.399971 17.3626C0.137804 16.9013 -3.05176e-05 16.3798 -3.05176e-05 15.8492C-3.05176e-05 15.3186 0.137804 14.7971 0.399971 14.3358L5.51087 6.33367Z" fill="url(#paint0_radial_33_2125)"/>
<path d="M10.0074 14.5737C9.80792 14.9304 9.69402 15.3285 9.67469 15.7367C9.65535 16.1449 9.7311 16.552 9.89596 16.9259L6.28189 11.2789C5.50787 10.0742 4.88143 7.55038 5.49583 6.33364L6.13431 5.33074C6.71256 4.42723 7.78775 3.82488 9.14603 3.82488H16.8018L10.0074 14.5737Z" fill="url(#paint1_radial_33_2125)"/>
<path d="M25.825 21.6663C26.4273 20.4617 25.825 17.9318 25.0389 16.7211L14.3834 0H22.1717C22.7477 0.00466638 23.3147 0.143131 23.8279 0.404466C24.3412 0.665801 24.7867 1.04285 25.1293 1.50586L30.9389 10.6374C31.1989 11.0967 31.3355 11.6155 31.3355 12.1433C31.3355 12.6711 31.1989 13.1898 30.9389 13.6491L25.825 21.6663Z" fill="url(#paint2_radial_33_2125)"/>
<path d="M21.3315 13.4263C21.5305 13.0694 21.6438 12.6711 21.6627 12.263C21.6815 11.8548 21.6052 11.4478 21.4399 11.0741L25.054 16.7211C25.828 17.9258 26.4544 20.4466 25.84 21.6663L25.1835 22.6692C24.6052 23.5728 23.53 24.1751 22.1717 24.1751H14.519L21.3315 13.4263Z" fill="url(#paint3_radial_33_2125)"/>
<path d="M173.339 4.86393H169.424V3.01474H167.165V4.86393H163.196V6.62881H165.171L165.048 6.74024C164.597 7.13293 164.236 7.61741 163.987 8.16124C163.739 8.70507 163.61 9.29569 163.608 9.89352C163.608 12.3029 165.717 14.2545 168.307 14.2545C170.897 14.2545 173.005 12.2999 173.005 9.89352C173.002 9.29846 172.872 8.7109 172.624 8.16984C172.377 7.62877 172.017 7.14658 171.568 6.7553L171.442 6.64386H173.339V4.86393ZM168.307 12.5167C167.759 12.5487 167.214 12.4154 166.742 12.134C166.271 11.8527 165.895 11.4363 165.663 10.9388C165.431 10.4413 165.354 9.88566 165.441 9.34376C165.529 8.80187 165.777 8.29874 166.154 7.89955C166.531 7.50036 167.019 7.2235 167.555 7.10484C168.09 6.98618 168.65 7.03119 169.16 7.23403C169.67 7.43687 170.107 7.7882 170.415 8.24251C170.723 8.69682 170.888 9.23317 170.888 9.78208C170.906 10.4865 170.645 11.1697 170.162 11.6821C169.678 12.1946 169.011 12.4947 168.307 12.5167Z" fill="#00367F"/>
<defs>
<radialGradient id="paint0_radial_33_2125" cx="0" cy="0" r="1" gradientUnits="userSpaceOnUse" gradientTransform="translate(0.248966 11.3148) rotate(-90) scale(20.6676 22.6359)">
<stop stop-color="#D3E6F6"/>
<stop offset="0.07" stop-color="#CBE2F5"/>
<stop offset="0.17" stop-color="#B5D6F1"/>
<stop offset="0.25" stop-color="#A1CBED"/>
<stop offset="0.34" stop-color="#8FBCE4"/>
<stop offset="0.53" stop-color="#5F95CB"/>
<stop offset="0.7" stop-color="#2F6EB3"/>
<stop offset="0.82" stop-color="#205CA2"/>
<stop offset="1" stop-color="#00367F"/>
</radialGradient>
<radialGradient id="paint1_radial_33_2125" cx="0" cy="0" r="1" gradientUnits="userSpaceOnUse" gradientTransform="translate(18.2892 4.08645) scale(14.5353 14.5353)">
<stop stop-color="#D3E6F6"/>
<stop offset="0.07" stop-color="#CBE2F5"/>
<stop offset="0.17" stop-color="#B5D6F1"/>
<stop offset="0.25" stop-color="#A1CBED"/>
<stop offset="0.34" stop-color="#8FBCE4"/>
<stop offset="0.53" stop-color="#5F95CB"/>
<stop offset="0.7" stop-color="#2F6EB3"/>
<stop offset="0.82" stop-color="#205CA2"/>
<stop offset="1" stop-color="#00367F"/>
</radialGradient>
<radialGradient id="paint2_radial_33_2125" cx="0" cy="0" r="1" gradientUnits="userSpaceOnUse" gradientTransform="translate(31.087 16.6759) rotate(90) scale(20.6638 22.6318)">
<stop stop-color="#D3E6F6"/>
<stop offset="0.07" stop-color="#CBE2F5"/>
<stop offset="0.17" stop-color="#B5D6F1"/>
<stop offset="0.25" stop-color="#A1CBED"/>
<stop offset="0.34" stop-color="#8FBCE4"/>
<stop offset="0.53" stop-color="#5F95CB"/>
<stop offset="0.7" stop-color="#2F6EB3"/>
<stop offset="0.82" stop-color="#205CA2"/>
<stop offset="1" stop-color="#00367F"/>
</radialGradient>
<radialGradient id="paint3_radial_33_2125" cx="0" cy="0" r="1" gradientUnits="userSpaceOnUse" gradientTransform="translate(13.3391 23.9135) rotate(180) scale(14.5367)">
<stop stop-color="#D3E6F6"/>
<stop offset="0.07" stop-color="#CBE2F5"/>
<stop offset="0.17" stop-color="#B5D6F1"/>
<stop offset="0.25" stop-color="#A1CBED"/>
<stop offset="0.34" stop-color="#8FBCE4"/>
<stop offset="0.53" stop-color="#5F95CB"/>
<stop offset="0.7" stop-color="#2F6EB3"/>
<stop offset="0.82" stop-color="#205CA2"/>
<stop offset="1" stop-color="#00367F"/>
</radialGradient>
</defs>
</svg>
