<svg width="51" height="39" viewBox="0 0 51 39" fill="none" xmlns="http://www.w3.org/2000/svg">
<path d="M0.764702 18.6292C1.87956 13.0691 5.65013 12.2486 8.03393 12.3179C8.16535 11.3096 9.07174 6.74885 14.6823 7.75043C14.9814 5.23977 16.5177 1.57325 22.7469 0.607439C28.3801 -0.264475 31.1989 2.27302 32.5744 4.56236C33.6915 3.94084 37.095 2.42728 40.9154 4.46622C43.1224 5.64442 44.0515 7.53357 44.4208 9.20139C45.7895 9.21257 49.551 9.65076 50.4053 14.017C51.298 18.5868 48.5608 20.6615 47.7291 21.1757C48.5902 22.734 49.1952 25.0434 47.6861 27.6592C46.3696 29.9463 44.0016 30.4895 41.883 30.4359C41.6994 31.3883 40.6253 35.759 36.0504 37.6817C32.2095 39.2959 27.6572 38.2138 25.3301 35.8842C24.8361 36.4409 23.6329 37.4335 21.3624 37.4C18.6115 37.3598 16.9165 35.5556 16.5336 35.104C15.4165 36.2464 13.2683 37.5096 9.58385 36.5057C4.11381 35.019 5.29664 29.2688 5.57535 28.1711C3.2686 27.1092 -0.409067 24.4621 0.760172 18.627L0.764702 18.6292Z" fill="url(#paint0_linear_472_476)"/>
<defs>
<linearGradient id="paint0_linear_472_476" x1="25.5612" y1="38.4508" x2="25.5612" y2="0.433055" gradientUnits="userSpaceOnUse">
<stop stop-color="white"/>
<stop offset="1" stop-color="#EDEDED"/>
</linearGradient>
</defs>
</svg>
